<svg xmlns="http://www.w3.org/2000/svg" viewBox="216 295 200 192" fill="none">
  <path fill="#10b981" d="M 382.88 483.12 C377.22,484.88 372.91,485.00 317.16,484.93 C263.51,484.86 256.89,484.68 251.40,483.11 C235.32,478.51 223.52,466.05 220.05,450.00 C219.18,446.00 218.95,429.03 219.18,387.95 L 219.50 331.39 L 223.22 323.86 C229.49,311.18 239.40,302.95 252.53,299.53 C261.17,297.28 371.69,297.25 380.31,299.49 C398.13,304.13 411.15,318.09 414.02,335.61 C415.28,343.28 415.25,438.48 413.99,447.19 C412.65,456.46 409.04,464.02 402.82,470.60 C396.64,477.13 391.27,480.50 382.88,483.12 ZM 253.40 432.49 C255.20,434.29 256.98,435.00 259.71,435.00 C263.32,435.00 264.49,434.03 281.47,417.03 L 299.42 399.06 L 307.09 406.53 C311.55,410.87 314.06,413.65 316.87,413.99 C321.11,414.51 326.03,409.46 339.33,395.81 C340.34,394.77 341.41,393.68 342.52,392.54 C354.08,380.69 363.87,371.00 364.27,371.00 C364.67,371.00 365.00,374.57 365.00,378.93 C365.00,386.30 365.18,387.00 367.63,388.93 C371.29,391.80 376.45,391.64 379.55,388.55 C382.00,386.10 382.00,386.05 382.00,365.12 L 382.00 344.15 L 379.37 342.07 C376.90,340.13 375.45,340.00 356.80,340.00 C345.53,340.00 336.06,340.43 335.01,340.99 C332.12,342.54 330.54,348.47 332.04,352.10 C333.73,356.18 335.72,357.00 343.93,357.00 C347.82,357.00 351.00,357.34 351.00,357.76 C351.00,358.18 343.58,365.93 334.51,374.99 L 318.01 391.46 L 310.73 384.23 C304.10,377.65 303.09,377.00 299.41,377.00 C295.45,377.00 294.91,377.47 273.43,399.64 C253.39,420.33 251.47,422.61 251.19,426.13 C250.95,429.15 251.42,430.51 253.40,432.49 Z"/>
</svg>
