<svg xmlns="http://www.w3.org/2000/svg" viewBox="453 290 560 165" fill="none">
  <path fill="#f0faf4" d="M 477.57 425.75 C476.90,427.90 476.39,428.00 465.93,428.00 C459.92,428.00 455.00,427.63 455.00,427.17 C455.00,426.49 477.35,371.29 488.19,345.22 L 491.21 337.94 L 503.28 338.22 L 515.35 338.50 L 551.72 428.00 L 540.61 427.98 L 529.50 427.96 L 525.68 417.98 L 521.87 408.00 L 484.18 408.00 L 481.23 415.75 C479.60,420.01 477.96,424.51 477.57,425.75 ZM 650.00 419.79 L 650.00 452.00 L 631.00 452.00 L 631.00 367.00 L 650.00 367.00 L 650.00 376.14 L 653.36 372.58 C657.99,367.67 662.55,366.00 671.22,366.02 C680.49,366.05 685.10,368.10 691.20,374.88 C697.08,381.42 699.42,388.03 699.38,398.02 C699.35,406.34 696.72,413.67 691.55,419.77 C682.28,430.73 664.09,432.16 653.39,422.77 ZM 835.00 367.00 L 835.00 452.00 L 816.00 452.00 L 816.00 419.79 L 812.32 423.02 C810.30,424.80 807.16,426.87 805.35,427.63 C801.48,429.25 792.04,429.42 786.80,427.96 C780.78,426.29 773.57,419.87 770.35,413.31 C767.79,408.10 767.50,406.47 767.50,397.50 C767.50,386.25 769.10,381.37 775.01,374.64 C784.40,363.95 801.89,362.25 811.49,371.10 C813.82,373.24 816.03,375.00 816.41,375.00 C816.78,375.00 816.88,373.20 816.63,371.00 L 816.17 367.00 ZM 575.00 419.61 L 575.00 452.00 L 556.00 452.00 L 556.00 367.00 L 575.00 367.00 L 575.00 376.15 L 577.63 373.03 C581.89,367.96 587.44,365.68 595.50,365.69 C607.85,365.72 617.46,372.65 622.06,384.85 C625.06,392.81 624.48,405.34 620.76,412.50 C615.37,422.91 606.08,428.94 595.37,428.98 C588.18,429.00 582.76,427.02 578.25,422.71 ZM 964.20 425.69 C956.64,429.39 941.07,430.04 933.36,426.98 C927.15,424.52 919.59,418.09 917.07,413.13 C911.02,401.21 912.71,385.16 921.00,375.74 C926.94,368.99 935.22,365.66 946.00,365.69 C956.17,365.72 960.74,367.37 966.69,373.20 C972.12,378.51 975.04,385.42 975.73,394.64 L 976.29 402.00 L 954.14 402.00 C936.20,402.00 932.00,402.26 932.00,403.35 C932.00,405.90 936.54,411.50 940.02,413.25 C946.55,416.53 956.64,415.15 962.28,410.20 C963.93,408.75 964.43,409.00 969.02,413.52 L 973.97 418.40 L 971.79 420.72 C970.59,422.00 967.18,424.23 964.20,425.69 ZM 878.87 426.38 C869.60,431.00 857.44,429.63 850.66,423.19 C844.77,417.61 844.56,416.56 844.17,390.75 L 843.82 367.00 L 863.00 367.00 L 863.00 386.03 C863.00,406.61 863.79,410.75 868.16,413.09 C871.55,414.90 878.13,414.61 881.33,412.52 C886.51,409.13 887.00,406.82 887.00,386.05 L 887.00 367.00 L 906.00 367.00 L 906.00 428.00 L 888.00 428.00 L 888.00 424.00 C888.00,419.64 887.13,418.96 885.31,421.88 C884.66,422.91 881.77,424.93 878.87,426.38 ZM 727.00 338.28 L 727.00 428.00 L 708.00 428.00 L 708.00 337.00 L 711.35 337.00 C713.20,337.00 717.47,337.29 720.85,337.64 ZM 1003.00 367.00 L 1003.00 428.00 L 983.00 428.00 L 983.00 367.00 ZM 758.00 367.15 L 758.00 428.00 L 739.00 428.00 L 739.00 397.56 C739.00,380.82 739.34,366.97 739.75,366.79 C740.16,366.61 744.44,366.61 749.25,366.80 ZM 583.42 413.63 C587.27,415.38 594.58,414.65 598.00,412.19 C599.38,411.19 601.51,408.40 602.75,405.98 C608.38,394.97 602.54,381.49 591.60,380.26 C585.96,379.62 581.90,381.21 578.10,385.54 C571.06,393.55 574.06,409.39 583.42,413.63 ZM 795.02 412.75 C800.53,415.57 803.44,415.56 808.50,412.73 C814.36,409.45 817.29,403.29 816.65,395.60 C816.11,389.06 814.25,385.82 808.91,382.16 C806.16,380.27 804.57,379.91 800.68,380.27 C795.55,380.75 791.92,382.88 788.56,387.39 C786.92,389.59 786.50,391.64 786.50,397.50 C786.50,406.22 788.20,409.27 795.02,412.75 ZM 660.94 414.10 C664.53,415.25 670.01,414.39 672.91,412.21 C677.67,408.66 679.39,405.29 679.77,398.74 C680.45,386.86 673.95,379.42 663.68,380.30 C654.84,381.07 650.00,387.07 650.00,397.29 C650.00,406.55 653.32,411.65 660.94,414.10 ZM 490.46 390.25 C489.84,391.86 490.82,392.00 502.88,392.00 L 515.98 392.00 L 513.45 385.25 C505.85,365.03 503.45,359.00 502.97,359.00 C502.68,359.00 499.90,365.64 496.79,373.75 C493.68,381.86 490.83,389.29 490.46,390.25 ZM 754.03 356.48 C750.47,358.32 748.46,358.34 744.38,356.56 C738.11,353.84 736.24,347.39 739.96,341.30 C742.33,337.41 748.26,335.26 752.63,336.70 C755.99,337.82 760.00,343.26 760.00,346.70 C760.00,350.36 757.30,354.80 754.03,356.48 ZM 932.00 389.37 C932.00,390.80 933.68,391.00 945.43,391.00 L 958.86 391.00 L 957.95 387.84 C955.53,379.38 947.61,376.50 937.77,380.50 C935.72,381.33 932.00,387.05 932.00,389.37 Z"/>
  <path fill="#10b981" d="M 995.00 350.00 C995.00,352.83 994.78,353.00 991.00,353.00 C987.26,353.00 987.00,352.81 987.00,350.11 C987.00,347.57 986.55,347.14 983.31,346.53 C979.20,345.76 970.00,341.39 970.00,340.21 C970.00,339.80 971.36,337.80 973.03,335.78 L 976.06 332.10 L 979.59 334.50 C986.00,338.85 995.80,338.95 998.40,334.69 C999.83,332.33 996.52,329.46 990.66,327.98 C976.71,324.46 971.00,320.00 971.00,312.63 C971.00,306.71 975.11,301.75 982.10,299.27 C986.37,297.76 987.00,297.17 987.00,294.77 C987.00,292.21 987.30,292.00 991.00,292.00 C994.78,292.00 995.00,292.17 995.00,295.00 C995.00,297.44 995.42,298.00 997.25,298.01 C999.59,298.02 1010.00,302.48 1010.00,303.47 C1010.00,303.79 1008.87,305.84 1007.48,308.03 L 1004.96 312.02 L 1001.02 310.01 C996.24,307.57 986.87,307.25 985.04,309.45 C982.48,312.54 984.26,314.43 992.00,316.81 C1002.88,320.17 1006.90,322.06 1009.07,324.82 C1011.68,328.14 1011.63,335.45 1008.98,339.81 C1007.00,343.04 1000.37,346.93 996.75,346.98 C995.48,346.99 995.00,347.82 995.00,350.00 Z"/>
</svg>
