<svg xmlns="http://www.w3.org/2000/svg" width="1254" height="836" viewBox="0 0 1254 836">
<g>
<path d="M 253.50 483.50 C238.06,479.29 227.43,470.15 221.82,456.24 L 219.50 450.50 L 219.50 391.50 L 219.50 332.50 L 222.09 326.36 C227.01,314.70 235.67,306.01 247.25,301.13 L 253.50 298.50 L 315.50 298.50 C385.39,298.50 383.22,298.29 395.00,306.16 C402.94,311.46 408.94,319.53 412.09,329.14 L 414.50 336.50 L 414.47 392.00 C414.44,443.41 414.31,447.91 412.58,453.00 C407.22,468.88 398.90,477.36 383.69,482.47 L 376.15 485.00 L 317.32 484.93 C270.91,484.88 257.45,484.58 253.50,483.50 ZM 281.11 417.50 C290.58,407.88 298.83,400.00 299.44,400.00 C300.05,400.00 303.68,403.15 307.50,407.00 C318.31,417.90 316.91,418.47 343.05,392.43 L 364.70 370.86 L 364.70 378.46 C364.70,385.03 365.01,386.38 367.02,388.53 C370.43,392.15 376.20,391.96 380.08,388.08 L 383.00 385.15 L 383.00 366.73 C383.00,355.56 382.55,347.02 381.86,345.04 C380.04,339.79 376.70,339.00 356.48,339.00 C337.31,339.00 334.39,339.66 332.19,344.47 C330.64,347.89 330.69,349.50 332.47,352.94 C334.27,356.42 338.47,358.00 345.90,358.00 L 351.49 358.00 L 334.81 374.68 L 318.13 391.36 L 310.91 384.18 C304.24,377.56 303.36,377.00 299.48,377.00 C295.32,377.00 295.03,377.25 273.14,399.49 C251.63,421.35 251.00,422.10 251.00,426.04 C251.00,431.58 254.39,435.00 259.90,435.00 C263.75,435.00 264.51,434.37 281.11,417.50 ZM 555.81 440.75 C555.64,434.56 555.64,415.20 555.80,397.71 L 556.10 365.93 L 565.30 366.21 L 574.50 366.50 L 574.81 370.81 L 575.12 375.12 L 577.23 372.43 C578.39,370.96 581.63,368.69 584.42,367.38 C597.45,361.32 612.79,367.17 620.53,381.14 C623.29,386.13 623.50,387.23 623.50,397.00 C623.50,407.05 623.35,407.77 620.10,413.78 C614.53,424.05 606.14,429.00 594.32,429.00 C587.20,429.00 579.40,425.83 576.57,421.80 C575.12,419.72 575.00,420.75 575.00,435.78 L 575.00 452.00 L 565.56 452.00 L 556.12 452.00 L 555.81 440.75 ZM 598.88 410.49 C603.90,405.95 605.48,400.35 603.87,392.82 C601.83,383.32 593.36,378.07 584.69,380.94 C573.59,384.60 570.59,401.79 579.49,410.69 C582.51,413.71 583.33,414.00 588.90,414.00 C594.46,414.00 595.33,413.69 598.88,410.49 ZM 631.00 409.00 L 631.00 366.00 L 640.50 366.00 L 650.00 366.00 L 650.00 370.58 L 650.00 375.17 L 654.49 371.22 C656.99,369.02 660.99,366.70 663.51,366.00 C673.50,363.20 685.86,367.42 692.25,375.80 C697.53,382.72 699.29,388.10 699.37,397.50 C699.45,406.58 696.88,413.66 691.08,420.26 C681.51,431.16 663.18,432.37 653.25,422.75 L 650.00 419.61 L 650.00 435.80 L 650.00 452.00 L 640.50 452.00 L 631.00 452.00 L 631.00 409.00 ZM 672.70 412.04 C681.33,406.78 682.35,391.03 674.51,384.14 C669.94,380.13 665.17,379.28 659.47,381.46 C653.14,383.87 650.63,387.84 650.16,396.15 C649.52,407.48 654.71,413.92 664.50,413.97 C667.73,413.98 670.63,413.30 672.70,412.04 ZM 816.00 435.90 L 816.00 419.79 L 812.32 423.02 C807.12,427.59 802.48,429.27 795.00,429.28 C764.20,429.34 755.36,382.18 783.47,367.77 C785.65,366.65 790.27,365.51 793.72,365.23 C801.52,364.60 807.68,366.74 812.55,371.76 L 816.00 375.31 L 816.00 370.65 L 816.00 366.00 L 825.50 366.00 L 835.00 366.00 L 835.00 409.00 L 835.00 452.00 L 825.50 452.00 L 816.00 452.00 L 816.00 435.90 ZM 809.03 412.28 C815.44,407.82 817.81,400.55 815.60,392.06 C814.01,385.91 810.94,382.36 805.91,380.85 C795.61,377.77 785.96,385.70 786.02,397.22 C786.05,403.10 789.18,409.53 793.19,411.98 C797.41,414.55 805.54,414.70 809.03,412.28 ZM 854.98 426.75 C852.38,425.44 849.27,422.70 847.51,420.17 L 844.50 415.83 L 844.19 390.92 L 843.87 366.00 L 853.44 366.00 L 863.00 366.00 L 863.00 385.35 C863.00,396.93 863.44,405.98 864.11,407.88 C866.20,413.88 876.04,416.12 881.49,411.83 C886.35,408.01 887.00,404.79 887.00,384.53 L 887.00 366.00 L 896.50 366.00 L 906.00 366.00 L 906.00 397.00 L 906.00 428.00 L 896.50 428.00 L 887.00 428.00 L 887.00 424.05 L 887.00 420.09 L 884.49 422.60 C877.90,429.19 863.73,431.18 854.98,426.75 ZM 933.95 427.70 C923.81,423.92 916.00,415.13 913.93,405.18 C909.61,384.35 922.48,366.70 943.06,365.23 C961.54,363.91 974.52,375.62 975.78,394.75 L 976.26 402.00 L 954.13 402.00 C929.95,402.00 930.40,401.87 934.02,407.81 C938.89,415.78 952.05,417.19 961.34,410.72 L 964.17 408.74 L 969.07 413.57 L 973.97 418.40 L 971.79 420.72 C970.59,422.00 967.11,424.27 964.06,425.76 C959.25,428.11 957.07,428.52 948.00,428.75 C941.12,428.93 936.28,428.56 933.95,427.70 ZM 958.00 389.45 C958.00,387.00 955.22,382.27 952.78,380.56 C950.08,378.67 941.45,378.54 938.19,380.35 C935.43,381.88 932.02,386.80 932.01,389.25 C932.00,390.83 933.28,391.00 945.00,391.00 C956.07,391.00 958.00,390.77 958.00,389.45 ZM 455.00 426.73 C455.00,426.03 463.07,405.66 472.93,381.48 L 490.86 337.50 L 502.80 337.22 L 514.75 336.94 L 521.98 354.72 C525.95,364.50 533.68,383.52 539.15,397.00 C547.77,418.25 549.90,423.36 551.80,427.25 C552.00,427.66 547.02,428.00 540.73,428.00 L 529.30 428.00 L 525.40 418.00 L 521.50 408.00 L 502.84 408.00 L 484.18 408.00 L 481.23 415.75 C479.60,420.01 477.96,424.51 477.57,425.75 C476.90,427.90 476.39,428.00 465.93,428.00 C457.74,428.00 455.00,427.68 455.00,426.73 ZM 515.00 391.25 C515.00,390.12 503.86,360.61 503.12,359.79 C502.77,359.40 499.79,366.13 496.49,374.74 C493.20,383.36 490.35,390.77 490.17,391.20 C489.98,391.64 495.50,392.00 502.42,392.00 C509.34,392.00 515.00,391.66 515.00,391.25 ZM 708.00 382.50 L 708.00 337.00 L 717.50 337.00 L 727.00 337.00 L 727.00 382.50 L 727.00 428.00 L 717.50 428.00 L 708.00 428.00 L 708.00 382.50 ZM 739.00 397.04 L 739.00 366.00 L 748.50 366.00 L 758.00 366.00 L 758.00 396.00 C758.00,412.50 758.00,426.34 758.01,426.75 C758.01,427.16 753.73,427.63 748.51,427.79 L 739.00 428.07 L 739.00 397.04 ZM 983.00 396.96 L 983.00 365.93 L 992.75 366.21 L 1002.50 366.50 L 1002.76 397.25 L 1003.03 428.00 L 993.01 428.00 L 983.00 428.00 L 983.00 396.96 ZM 744.00 356.89 C738.44,354.71 736.27,347.25 739.42,341.15 C742.36,335.46 750.99,334.22 756.02,338.75 C765.48,347.28 756.00,361.60 744.00,356.89 ZM 987.67 352.33 C987.30,351.97 987.00,350.67 987.00,349.46 C987.00,347.77 986.24,347.10 983.75,346.61 C981.96,346.26 978.14,344.82 975.25,343.41 C969.61,340.66 969.58,340.49 973.84,335.10 L 975.74 332.69 L 981.07 335.35 C987.11,338.36 993.41,338.80 996.78,336.44 C1001.36,333.23 998.62,330.05 989.00,327.44 C976.44,324.04 971.01,319.53 971.01,312.50 C971.01,306.54 977.15,300.01 984.21,298.45 C986.49,297.95 987.00,297.30 987.00,294.92 C987.00,292.18 987.25,292.00 991.00,292.00 C994.72,292.00 995.00,292.20 995.00,294.81 C995.00,297.33 995.50,297.75 999.78,298.85 C1002.41,299.52 1005.76,300.86 1007.23,301.83 L 1009.91 303.58 L 1007.40 307.78 C1005.04,311.75 1004.78,311.90 1002.70,310.55 C999.05,308.17 991.77,306.95 987.77,308.05 C980.33,310.11 982.95,314.81 993.00,317.45 C1006.33,320.95 1011.00,324.85 1011.00,332.45 C1011.00,339.43 1007.37,343.61 999.18,346.06 C995.55,347.15 995.00,347.69 995.00,350.16 C995.00,352.71 994.66,353.00 991.67,353.00 C989.83,353.00 988.03,352.70 987.67,352.33 Z" fill="rgba(0,0,0,1)"/>
</g>
</svg>